<svg xmlns="http://www.w3.org/2000/svg" width="67" height="56"><path fill="#2C6269" d="M51.27 56c4.64 0 8.37-1.32 11.2-3.97a12.53 12.53 0 004.23-9.46c0-2.95-.43-5.5-1.29-7.63a197.25 197.25 0 01-2.5-6.56 23.95 23.95 0 01-1.2-8.09c0-2.74.45-5.8 1.36-9.15C63.97 7.78 65.29 4.07 67 0H55.36a65.37 65.37 0 00-9.9 12.51 78.46 78.46 0 00-6.89 14.04C36.86 31.23 36 35.4 36 39.06c0 5.4 1.36 9.56 4.08 12.52 2.73 2.95 6.45 4.42 11.2 4.42zm-36 0c4.64 0 8.37-1.32 11.2-3.97a12.53 12.53 0 004.23-9.46c0-2.95-.43-5.5-1.29-7.63a197.25 197.25 0 01-2.5-6.56 23.95 23.95 0 01-1.2-8.09c0-2.74.45-5.8 1.36-9.15C27.97 7.78 29.29 4.07 31 0H19.36a65.37 65.37 0 00-9.9 12.51 78.46 78.46 0 00-6.89 14.04C.86 31.23 0 35.4 0 39.06c0 5.4 1.36 9.56 4.08 12.52C6.8 54.53 10.54 56 15.28 56z"/></svg>